<svg width="32" height="32" viewBox="0 0 32 32" fill="none" xmlns="http://www.w3.org/2000/svg">
    <mask id="mask0_4297_23167" style="mask-type:alpha" maskUnits="userSpaceOnUse" x="0" y="0"
        width="32" height="32">
        <path
            d="M15.2554 2.79248C15.6162 2.02838 16.7034 2.02821 17.064 2.79248L20.7739 10.6558L29.1626 11.9312C29.9686 12.0539 30.297 13.0375 29.7261 13.6196L23.6274 19.8364L25.0581 28.5591C25.1928 29.3818 24.3201 29.9985 23.5894 29.5972L16.1597 25.5122L8.72998 29.5972C7.99913 29.999 7.12637 29.3821 7.26123 28.5591L8.69092 19.8364L2.59229 13.6196C2.02141 13.0375 2.34973 12.0539 3.15576 11.9312L11.5444 10.6558L15.2554 2.79248ZM15.7065 7.25244L13.0571 12.8687L7.14209 13.7671L6.17627 13.9136L6.86084 14.6118L11.1528 18.9878L10.1382 25.1733L9.97217 26.187L10.8726 25.6919L16.1587 22.7856L21.4438 25.6919L22.3452 26.187L22.1782 25.1733L21.1646 18.9878L25.4565 14.6118L26.1411 13.9136L25.1743 13.7671L19.2603 12.8687L16.6118 7.25244L16.1587 6.29346L15.7065 7.25244ZM13.397 13.3228L7.21729 14.2612L13.396 13.3228L16.1587 7.46533L13.397 13.3228ZM5.79346 4.32568C6.30714 3.88061 7.06444 3.89745 7.55713 4.34033L7.67432 4.46045L10.1743 7.34619C10.6565 7.90266 10.5969 8.74482 10.0405 9.22705C9.52688 9.67209 8.76955 9.65521 8.27686 9.2124L8.15967 9.09229L5.65869 6.20654C5.17662 5.65001 5.23697 4.80785 5.79346 4.32568ZM24.6763 4.34033C25.1689 3.89738 25.9262 3.88073 26.4399 4.32568C26.9965 4.80788 27.0569 5.65 26.5747 6.20654L24.0747 9.09229L23.9565 9.2124C23.4639 9.65501 22.7074 9.6719 22.1938 9.22705C21.6373 8.74485 21.5769 7.90273 22.0591 7.34619L24.5591 4.46045L24.6763 4.34033Z"
            fill="currentColor" />
    </mask>
    <g mask="url(#mask0_4297_23167)">
        <rect width="32" height="32" fill="black" />
    </g>
</svg>
